<svg xmlns="http://www.w3.org/2000/svg" viewBox="0 0 85 55" preserveAspectRatio="xMidYMid meet">
    <g
       transform="matrix(0.9784210698136238,0,0,0.9784210698136238,-11.441449082172877,-16.56956402714067)" fill="#0A63F3">
        <path xmlns="http://www.w3.org/2000/svg"
              d="M54.166,61.471c-4.083-2.633-9.205-2.35-12.944,0.316L18.341,47.034l-2.442-0.056l-3.842-0.016  c-0.448,0.131-0.465,0.483-0.142,1.157l2.978,6.189l4.046,0.094l1.753,3.647l3.995,0.091l1.684,3.502l4.046,0.096l2.286,4.748  l3.875,2.5c-0.884,4.506,0.972,9.291,5.056,11.923c5.352,3.448,12.495,1.896,15.956-3.472C61.05,72.068,59.518,64.921,54.166,61.471  z M36.392,61.424c-0.309,0.479-1.094,0.524-1.751,0.098L14.062,48.253L17.9,48.28l17.86,11.504  C36.419,60.209,36.703,60.943,36.392,61.424z M55.799,76.283c-0.943,1.466-2.9,1.887-4.363,0.941  c-1.468-0.945-1.89-2.898-0.944-4.363c0.944-1.467,2.897-1.889,4.364-0.942C56.32,72.863,56.743,74.816,55.799,76.283z"></path>
        <path xmlns="http://www.w3.org/2000/svg"
              d="M88.215,45.122c0-4.406-3.683-9.124-5.761-9.379l-5.248-14.09c-0.989-2.456-3.129-4.718-7.163-4.718h-7.5h-5.691h-0.535  h-5.692h-7.499c-4.033,0-6.175,2.262-7.163,4.718l-5.248,14.01c-2.079,0.255-5.762,5.012-5.762,9.418c0,0,0.022,0.134,0.015,0.335  l6.345,4.094v-1.073c0-1.317,1.067-2.503,2.45-2.503h7.934c1.381,0,2.616,1.186,2.616,2.503v1.196c0,1.316-1.235,2.301-2.616,2.301  H35.15l5.908,3.854c2.055-0.94,4.289-1.409,6.589-1.409c3.029,0,5.978,0.784,8.528,2.432c0.576,0.369,1.119,1.125,1.634,1.125  h15.504v5c0,7,10,7,10,0v-4.809c0,0,2.703-0.376,4.108-1.023C88.828,56.456,88.215,45.122,88.215,45.122z M56.852,35.936h-0.535  h-20.17L40.1,23.92c0.493-1.677,1.234-2.985,2.962-2.985h13.254h0.535h13.254c1.729,0,2.471,1.308,2.965,2.985l3.949,12.015  L56.852,35.936L56.852,35.936z M82.311,49.635c0,1.316-1.521,2.301-2.903,2.301h-7.935c-1.383,0-2.162-0.983-2.162-2.301v-1.196  c0-1.317,0.779-2.503,2.162-2.503h7.935c1.383,0,2.903,1.186,2.903,2.503V49.635z"></path>
    </g>
</svg>
