<svg xmlns="http://www.w3.org/2000/svg" viewBox="0 0 295 85" preserveAspectRatio="xMidYMid meet">

    <g
       transform="matrix(0.9784210698136238,0,0,0.9784210698136238,-11.441449082172877,-16.56956402714067)" fill="#0A63F3">
        <path xmlns="http://www.w3.org/2000/svg"
              d="M54.166,61.471c-4.083-2.633-9.205-2.35-12.944,0.316L18.341,47.034l-2.442-0.056l-3.842-0.016  c-0.448,0.131-0.465,0.483-0.142,1.157l2.978,6.189l4.046,0.094l1.753,3.647l3.995,0.091l1.684,3.502l4.046,0.096l2.286,4.748  l3.875,2.5c-0.884,4.506,0.972,9.291,5.056,11.923c5.352,3.448,12.495,1.896,15.956-3.472C61.05,72.068,59.518,64.921,54.166,61.471  z M36.392,61.424c-0.309,0.479-1.094,0.524-1.751,0.098L14.062,48.253L17.9,48.28l17.86,11.504  C36.419,60.209,36.703,60.943,36.392,61.424z M55.799,76.283c-0.943,1.466-2.9,1.887-4.363,0.941  c-1.468-0.945-1.89-2.898-0.944-4.363c0.944-1.467,2.897-1.889,4.364-0.942C56.32,72.863,56.743,74.816,55.799,76.283z"></path>
        <path xmlns="http://www.w3.org/2000/svg"
              d="M88.215,45.122c0-4.406-3.683-9.124-5.761-9.379l-5.248-14.09c-0.989-2.456-3.129-4.718-7.163-4.718h-7.5h-5.691h-0.535  h-5.692h-7.499c-4.033,0-6.175,2.262-7.163,4.718l-5.248,14.01c-2.079,0.255-5.762,5.012-5.762,9.418c0,0,0.022,0.134,0.015,0.335  l6.345,4.094v-1.073c0-1.317,1.067-2.503,2.45-2.503h7.934c1.381,0,2.616,1.186,2.616,2.503v1.196c0,1.316-1.235,2.301-2.616,2.301  H35.15l5.908,3.854c2.055-0.94,4.289-1.409,6.589-1.409c3.029,0,5.978,0.784,8.528,2.432c0.576,0.369,1.119,1.125,1.634,1.125  h15.504v5c0,7,10,7,10,0v-4.809c0,0,2.703-0.376,4.108-1.023C88.828,56.456,88.215,45.122,88.215,45.122z M56.852,35.936h-0.535  h-20.17L40.1,23.92c0.493-1.677,1.234-2.985,2.962-2.985h13.254h0.535h13.254c1.729,0,2.471,1.308,2.965,2.985l3.949,12.015  L56.852,35.936L56.852,35.936z M82.311,49.635c0,1.316-1.521,2.301-2.903,2.301h-7.935c-1.383,0-2.162-0.983-2.162-2.301v-1.196  c0-1.317,0.779-2.503,2.162-2.503h7.935c1.383,0,2.903,1.186,2.903,2.503V49.635z"></path>
    </g>
    <g
       transform="matrix(1.642485580225462,0,0,1.642485580225462,89.68929424823659,-8.42485110306568)" fill="#111">
        <path d="M30.72 10 q0.56 0 0.98 0.42 t0.42 0.98 l0 26.8 q0 0.56 -0.42 0.98 t-0.98 0.42 l-3.04 0 q-0.6 0 -1 -0.42 t-0.4 -0.98 l0 -18.08 l-7.4 9.52 q-0.44 0.52 -1.12 0.52 l0 0 q-0.32 0 -0.64 -0.14 t-0.48 -0.42 l-13.12 -17.36 q-0.24 -0.28 -0.28 -0.7 t0.16 -0.76 t0.52 -0.56 t0.72 -0.22 l3.52 0 q0.68 0 1.12 0.56 l8.48 11.2 l8.28 -11.2 q0.44 -0.56 1.16 -0.56 l3.52 0 z M7.68 29.4 q0.56 0 0.98 0.4 t0.42 1 l0 7.4 q0 0.56 -0.42 0.98 t-0.98 0.42 l-3.04 0 q-0.56 0 -0.98 -0.42 t-0.42 -0.98 l0 -7.4 q0 -0.6 0.42 -1 t0.98 -0.4 l3.04 0 z M51.8 10 q6.56 0 10.76 4.4 q4.12 4.32 4.12 10.6 t-4.12 10.6 q-4.2 4.4 -10.76 4.4 t-10.76 -4.4 q-4.12 -4.32 -4.12 -10.6 t4.12 -10.6 q4.2 -4.4 10.76 -4.4 z M51.8 34.28 q4.12 0 6.64 -2.64 q2.44 -2.56 2.44 -6.62 t-2.48 -6.68 t-6.6 -2.62 t-6.6 2.62 t-2.48 6.68 t2.44 6.62 q2.52 2.64 6.64 2.64 z M91.76 10 q0.56 0 0.96 0.42 t0.4 0.98 l0 2.88 q0 0.56 -0.4 0.98 t-0.96 0.42 l-7.88 0 l0 22.28 q0 0.56 -0.42 0.98 t-0.98 0.42 l-3 0 q-0.6 0 -1 -0.42 t-0.4 -0.98 l0 -22.28 l-7.88 0 q-0.56 0 -0.98 -0.42 t-0.42 -0.98 l0 -2.88 q0 -0.56 0.42 -0.98 t0.98 -0.42 l21.56 0 z M110.12 10 q6.56 0 10.76 4.4 q4.12 4.32 4.12 10.6 t-4.12 10.6 q-4.2 4.4 -10.76 4.4 t-10.76 -4.4 q-4.12 -4.32 -4.12 -10.6 t4.12 -10.6 q4.2 -4.4 10.76 -4.4 z M110.12 34.28 q4.12 0 6.64 -2.64 q2.44 -2.56 2.44 -6.62 t-2.48 -6.68 t-6.6 -2.62 t-6.6 2.62 t-2.48 6.68 t2.44 6.62 q2.52 2.64 6.64 2.64 z"></path>
    </g>
</svg>
